/* XPM */
static char *xpm_[] = {
/* columns rows colors chars-per-pixel */
"32 32 77 1 ",
"  c #0000EE",
". c #0000F0",
"X c #0000F1",
"o c #0001F1",
"O c #0000F2",
"+ c #0001F2",
"@ c #0000F3",
"# c #0203F3",
"$ c #0000F4",
"% c #0000F5",
"& c #0101F5",
"* c #0000F6",
"= c #0000F7",
"- c #0101F7",
"; c #0202F6",
": c #0303F7",
"> c #0304F5",
", c #0405F6",
"< c #0506F7",
"1 c #0607F7",
"2 c #0000F8",
"3 c #0000F9",
"4 c #0101F9",
"5 c #0202F8",
"6 c #0303F9",
"7 c #0000FA",
"8 c #0000FB",
"9 c #0100FB",
"0 c #0202FA",
"q c #0303FB",
"w c #0404F8",
"e c #0404FA",
"r c #0505FB",
"t c #0606FA",
"y c #0707FB",
"u c #0000FC",
"i c #0100FC",
"p c #0000FD",
"a c #0201FC",
"s c #0201FD",
"d c #0302FD",
"f c #0100FE",
"g c #0201FF",
"h c #0302FE",
"j c #0302FF",
"k c #0403FE",
"l c #0403FF",
"z c #0404FC",
"x c #0505FD",
"c c #0504FF",
"v c #0605FF",
"b c #0C0CFF",
"n c #0D0CFF",
"m c #0D0DFF",
"M c #0E0EFF",
"N c #0F0EFF",
"B c #0F0FFF",
"V c #100FFF",
"C c #1010FF",
"Z c #1011FF",
"A c #1111FF",
"S c #1112FF",
"D c #1212FF",
"F c #1213FF",
"G c #1313FF",
"H c #1314FF",
"J c #1415FF",
"K c #1515FF",
"L c #1516FF",
"P c #1616FF",
"I c #1617FF",
"U c #1717FF",
"Y c #1718FF",
"T c #1C1CFF",
"R c #2122FF",
"E c #2324FF",
"W c #2526FF",
/* pixels */
"WISHMMSMMMMMMMMMSSSSSSSSSISSISHR",
"I1#1&6c6aaa6666666666666www&w>1S",
"S# ##&6&6666&&&&&6666&&&&6&#&##M",
"S>#66acaaaaaa666aaaaaaa66c6&c&6S",
"S&&66acaaaaaa66aaaaaaaaa6a6&a&6M",
"S&&66aaaaaaa6666aaaaaaaa6a6&666M",
"S66a6alaaaaaaaaaaaaaaaaaala6a6aM",
"Sa6a6aa6aaaaaaaaaaaaaaaaalaaa6aM",
"M6aaaaaaaaaaaaaaaaaaaaaaalaaaaaM",
"M6aaaaaaaaaaaaaaaaaaaaaaalaaaaaM",
"Ma6aaalaaaaaaaaaaaaaaaaaaaaaa6aM",
"M66a6alaaaaaaaaaaaaaaaaaaaa6a6aM",
"M66a6aaaaaaaaaaaaaaaaaaa6a66a66M",
"M6666alaaaaaaaaaaaaaaaaa6aa6a66M",
"M&&66aaaaaaaaaaaaaaaaaaaal66a66M",
"M&&66aaaaaaaaaaaaaaaaaaaala6a66M",
"S6&a6alaaaaaaaaaaaaaaaaaaaa6a6aM",
"S66aaaaaaaaaaaaaaaaaaaaaaaaaaaaM",
"S66aaaaaaaaaaaaaaaaaaaaaal66aaaM",
"S66aaalaaaaaaaaaaaaaaaaaal66aaaM",
"S66aaalaaaaaaaaaaaaaaaaaal66a66M",
"S6&a6alaaaaaaaaaaaaaaaaaaa66a66M",
"S6&a6alaaaaaaaaaaaaaaaaaaa66a66M",
"S6&66aaaaaaaaaaaaaaaaaaaal66a66M",
"I6&ca6aaaaaaaaaaaaaaaaaaala6c66V",
"I&&c66aaaaaaaaaaaaaaaaaa6aa6666M",
"S&#666a6aaaa6666aaaa66666a&&6&&M",
"I&&666aaaaaaa666aaaaaa666a6&6&6M",
"Yw&wa6aaaaaaaaaaaaaaaaaa6c666&6S",
"H##6&&66aa66666666666666&6&&&#&M",
"I>#w66aaaaaaaa66aaaaaaaa6c6&6&6M",
"ESMSMMVMMMMMMMMMMMMMMMMMMSMbSMMT"
};
