/* XPM */
static char *xpm_[] = {
/* columns rows colors chars-per-pixel */
"64 64 158 2 ",
"   c #2D1A1A",
".  c #341E1E",
"X  c #262524",
"o  c #3A2121",
"O  c #302F2D",
"+  c #343331",
"@  c #3E3D3B",
"#  c #441D1D",
"$  c #481F1F",
"%  c #45201D",
"&  c #48221F",
"*  c #4B2120",
"=  c #542323",
"-  c #5C2424",
";  c #5F2925",
":  c #5E2828",
">  c #403F3C",
",  c #622726",
"<  c #682723",
"1  c #622A26",
"2  c #6D2926",
"3  c #642928",
"4  c #6C2B2B",
"5  c #742C25",
"6  c #7B2C24",
"7  c #732E2C",
"8  c #782F2A",
"9  c #6E312C",
"0  c #74322D",
"q  c #7C322C",
"w  c #7E392E",
"e  c #763230",
"r  c #793332",
"t  c #41403D",
"y  c #474643",
"u  c #504E4C",
"i  c #53514E",
"p  c #6C6966",
"a  c #6E6D69",
"s  c #706E6B",
"d  c #74736F",
"f  c #802F27",
"g  c #83342C",
"h  c #8A362C",
"j  c #85382F",
"k  c #8E392F",
"l  c #9A3625",
"z  c #9D3927",
"x  c #953C2D",
"c  c #993E2E",
"v  c #833631",
"b  c #843B31",
"n  c #8A3A32",
"m  c #913D32",
"M  c #923D32",
"N  c #913C31",
"B  c #913B31",
"V  c #9C3F30",
"C  c #A23E2A",
"Z  c #99402F",
"A  c #9C4332",
"S  c #A5422D",
"D  c #A4422F",
"F  c #A7442F",
"G  c #A5432E",
"H  c #A8452F",
"J  c #A8452F",
"K  c #A64A2E",
"L  c #A04330",
"P  c #A34532",
"I  c #A44531",
"U  c #A74531",
"Y  c #A44731",
"T  c #A74631",
"R  c #A44532",
"E  c #A54632",
"W  c #A54732",
"Q  c #A44732",
"!  c #A64732",
"~  c #A74732",
"^  c #A64632",
"/  c #A54530",
"(  c #A84731",
")  c #A94731",
"_  c #A94630",
"`  c #AA4731",
"'  c #A84632",
"]  c #A94632",
"[  c #A84732",
"{  c #A94732",
"}  c #AA4732",
"|  c #A94731",
" . c #A74832",
".. c #A64833",
"X. c #A94831",
"o. c #AA4831",
"O. c #A84832",
"+. c #A94832",
"@. c #A94932",
"#. c #A94933",
"$. c #AA4832",
"%. c #AB4832",
"&. c #AA4932",
"*. c #AB4932",
"=. c #AA4933",
"-. c #AB4933",
";. c #AB4932",
":. c #AB5132",
">. c #C3563F",
",. c #C3563F",
"<. c #C35E3F",
"1. c #846B66",
"2. c #856E69",
"3. c #87726C",
"4. c #89746E",
"5. c #8B7772",
"6. c #8B7771",
"7. c #8D7D77",
"8. c #8E7C76",
"9. c #8F7F79",
"0. c #90817B",
"q. c #91837D",
"w. c #92847E",
"e. c #91837C",
"r. c #938680",
"t. c #948983",
"y. c #958B84",
"u. c #958D87",
"i. c #958B85",
"p. c #978E88",
"a. c #97908A",
"s. c #99948D",
"d. c #9B9790",
"f. c #9B9891",
"g. c #9B9891",
"h. c #B49286",
"j. c #B89E91",
"k. c #B9A38F",
"l. c #B9A592",
"z. c #B9A495",
"x. c #BAA799",
"c. c #BCAE9F",
"v. c #BBAB9C",
"b. c #BDB09F",
"n. c #BCB1A2",
"m. c #BEB5A5",
"M. c #BEB4A7",
"N. c #BFB6A7",
"B. c #BEB3A3",
"V. c #BEB7A9",
"C. c #BFB8A9",
"Z. c #BFB9AA",
"A. c #BFB8AA",
"S. c #BFB9AB",
"D. c #C0B9AB",
"F. c #C0BAAC",
"G. c #C0BBAD",
"H. c #C0BBAD",
/* pixels */
"f.1 1 r r r r r r r r r r r r r r r r r r r r r r r r r r r G.G.G.G.r r r r r r r r r r r r r r r r r r r r r r r r v n n n S.f.",
"1 1 1 *.*.*.*.*.*.*.N N N N N r r r r r r r v r r N N N r N N G.G.r >.>.>.>.r r r r r r r r r r r r r r r *.r v *.n n n r r : f.",
"1 *.*.*.*.*.*.*.%.N *.*.N T T T ) *.*.*.*.*.*.*.N N N ) N N N G.r >.*.*.*.*.*.*.>.*.*.*.*.*.*.*.*.*.*.r *.*.*. .*.P n r r r 1 G.",
": *.*.*.*.*.*.*.%.%.*.%.*.N *.*.*.*.*.*.*.*.*.*.*.N *.*.*.N N G.r >.*.*.>.*.*.*.*.*.*.*.>.T  . .) *.*.*.*.*.*.n *. .n n n r 1 G.",
": *.*.*.*.*.N *.%.%.%.%.N *.N N N N *.*.*.) T T ) T T ) N N N G.r *.*.*.*.*.*.*.*.*.*.*.*.*.*. .) T n  .*.*.*.*. .T n n n r r N.",
": ) ) ) T N N N *.*.N *.N N N N ) N N ) ) *.) T T T T T N r N G.r *.*.*.*.n )  .*.*.*.*. .*.*.T T ) n *.*.n ) ) T  .T  .n r r Z.",
": ) n n n n n n n n B B B B B N N N N N N ) ) T T T r N N r N G.r *.*.n *.n n *.*.n n *.n *.n n n P n n n n n n n n n n n T n n.",
"- D k k F k k k k k k n n n e n n n n n B B B B B N r r r r r G.r ) T T *.n *.n n n *.n n n n n n n n n n n n n n n v v v n b c.",
"- k k k k k 7 k k 7 k k k 0 0 0 0 k k k H n n e n n r r r r r D.r T v ) n n *.n n n n n n n n n e r e n v v v v v j g g g g g y.",
"= h h h h h 7 7 7 7 7 k k k k 7 k 7 k k 0 0 0 k 0 0 0 0 0 e r Z.r L v v v v v v v v v v ) v v e 7 7 g 7 g g g g g g D q q q q y.",
"= 7 h h h h h h 7 7 7 7 h h h h 7 7 7 7 7 7 7 7 7 7 7 - 7 7 0 Z.r V g 7 g 7 g g g g g g g g 7 7 7 4 4 4 4 4 4 4 4 q q 4 q 8 * t.",
"= 4 h 4 4 h 4 7 7 7 7 7 7 h 7 7 7 7 7 7 7 7 7 7 7 7 7 = = 7 - N.0 h g 7 7 7 g 4 4 4 q q q q 4 4 4 4 4 4 = 4 4 3 3 3 7 3 7 , 6.t.",
"= 4 4 4 g g 4 7 4 4 4 4 h 4 4 4 = = = 4 4 4 4 4 4 4 4 4 4 = = N.4 q q 4 q 4 4 4 4 4 4 8 8 4 3 3 3 3 * * , * * , , , , , , 2 , y.",
"= 4 4 g 4 4 4 4 4 4 = = = = = = = = = = = 4 4 4 4 7 7 7 7 - - Z.7 7 7 8 3 7 4 3 3 3 , , , , , $ , $ $ $ : # # : : : : : , : $ u.",
"l.0.4 4 4 = = = = = = = = = = w.@ @ > t - - - o o - - = = = q.p 0.7 0 4 4 4 4 3 , 3 3 3 3 3 3 3 = . . = = = . = 4 4 4 4 3 * = 7.",
"f.f.f.f.f.f.G.G.G.V.V.S.G.G.G.f.f.f.f.f.f.f.f.G.G.G.f.f.f.f.d d d f.G.S.Z.G.f.f.f.f.f.G.G.G.G.G.G.G.G.G.G.G.G.G.G.G.G.G.+ + d.d.",
"r r r r r 1 + y f.r r r r r r r r r r r r r r r r r r r r *.*.*.r r r n r r r f.r r *.*.r r r r *.*.*.*.r r r r r r r r *.*.r r ",
"*.*.*.r r r r + f.r r >.>.>.*.*.*.*.*.*.*.*.*.*.*.*.*.*.*.*.*.*.*.*.*.n *.n r f.r *.*.*.*.*.r *.*.*.*.*.*.*.r *.*.*.*.>.*.*.*.*.",
"*.*.*.*.*.r r r f.r *.*.*.>.*.*.*.*.*.*.*.*.*.*.*.>.*.*.*.*.*.*.*.*.*.>.*.n r f.r *.*.>.*.*.r *.*.*.*.*.*.*.*.*.*.*.*.>.>.*.*.*.",
"*.*.*.*.*.*.r r d.r *.>.>.*.*.*.>.>.*.*.n n *.*.*.*.*.*.*.*.*.*.*.*.*.*.>.*.n d r *.*.>.>.*.*.*.*.N *.*.*.*.*.*.*.*.*.*.*.*.*.*.",
") N N N *.*.r r G.r *.*.*.n *.*.*.*.*.n n *.*.*.*.n n n n n n n n n *.*.*.n r d r *.*.*.*.*.>.*.*.*.*.N N *.*.*.*.*.*.*.*.*.*.*.",
"B B B B B ) ) r D.) ) ) n n ) *.) n n n n n n n n n n n n n n n n n n n n n n d r *.*.*.*.*.*.*.*.*.*.*.*.N *.*.*.*.) ) ) ) ) ) ",
"k k k B B B ) e Z.) ) ) H H ) H ) n n n n n n n n n r n n n n n n n n n n n n d r ) *.) ) ) ) ) N N N N N N T P T T T T T T T B ",
"k k k k k k F 7 V.F F F j F j H j j j j j j j j j j j j j j j 0 j j H ) H ) j s r H H k k k k k k k k k k k S S k k k F S k k k ",
"h h h h h h h 7 N.7 D S g D g D g g g 7 7 g 7 g 7 7 7 7 7 7 7 7 g g g D g g 7 a r D k h h h h h h h h h h h h h h h h h h h 7 h ",
"h 4 h h h h h 7 N.4 q C C q q S q q q 7 q q q 7 q 7 7 7 q 7 7 7 q q q S q q 4 p k h h h h h h h h h S h h h h h h h h h h h 4 h ",
"g g g g g g 3 4 n.4 q q q q q q q q 4 4 4 q 4 4 4 4 4 4 4 4 4 4 q q q q q q 4 y.0 g g g g 4 g g g g g g g 4 g g g g 4 g g g 4 4 ",
", f f f f f , 3 p.5 , , , , , , , , , 5 , , , 5 3 , , , , , , , , , 5 5 , , , t.7 , , , , , , , , , , f , , f f f f f , , , , , ",
": 6 6 6 6 6 : : O 5 , , , # # # , , , , : , , , , , , 5 5 5 : : : : : 5 : : : w.4 : : : : : : : : : : - : : : : : : : 6 6 6 : : ",
"- 6 6 6 5 5 - - O X - # # - # - - - # - - - - < - = = = = = = = = = = = = # # q.3 = = = = = = # = # # = = = = = = = 5 = 5 = = = ",
"1 g g g 3 , , h.a X X #     - - # # - : : : : : : , , , , 1 4 4 4 4 4 4 4 = x.s.p.7 e e e : : - 4 * $ - # - : 1 : : - - - - - - ",
"Z.f.d.f.f.f.d d d d f.f.f.f.f.S.Z.V.Z.V.V.V.V.N.V.V.S.G.G.G.G.G.G.G.G.G.G.G.G.d.d.f.G.G.G.G.d G.G.G.G.G.G.G.G.G.G.G.G.G.G.G.S.Z.",
"r r r r r r r r r r r r r r r r r r r r r A r G.G.1 1 r r r r r r r r r r r r r r r r r r r r r r r r r r y d f.f.r r r r r r r ",
"*.*.*.*.>.>.>.>.>.*.*.*.*.*.*.*.*.r r A A A r r G.1 r r r r r r :.:.r r r r :.r :.:.<.<.:.:.:.:.:.:.:.r r 1 y f.r r *.*.r *.*.*.",
"*.*.*.*.*.*.*.*.*.*.*.*.*.*.*.*.*.*.*.r A A r r G.r r :.:.:.:.:.:.:.:.:.r :.:.:.<.:.:.<.<.:.:.:.:.:.:.:.:.:.1 f.r *.r *.*.*.>.>.",
"*.*.*.*.*.*.*.*.*.*.*.*.*.*.*.*.*.r *.r r A A r G.r :.b :.:.:.:.:.:.:.:.:.:.:.:.:.:.:.<.:.<.:.:.b b b b :.:.1 f.r r *.*.*.*.>.>.",
"*.*.*.*.*.*.*.*.*.*.*.*.A A A *.*.r *.*.*.*.r r G.r :.:.:.:.:.:.:.:.:.<.:.:.:.:.:.:.<.:.:.<.:.:.:.:.b b b :.r f.r *.*.*.*.>.*.*.",
"*.A *.*.*.*.*.A *.*.A A A A A *.*.*.*.*.*.*.A r G.r :.b :.:.b b :.:.:.:.:.:.:.:.:.:.:.:.:.:.:.:.:.b b b r r r f.r *.*.*.>.*.*.A ",
"A *.*.A *.A A A A A A A A A A *.*.*.*.*.*.*.A r y r :.:.b b b :.:.:.:.:.:.:.b b :.b b b b b :.:.:.b b b r r e d.r *.) ) >.) ) ) ",
"A A A *.A *.A A A v A A A A A A A A A A A *.A + + b :.b :.:.:.b b b b :.:.b b b b b b b b b b b b :.:.b b e e d.e ) ) ) ) H Z c ",
"v A A A A A A v A A v v v A A A A A A A A A A y d b :.:.b b b b b b :.b :.b b b b b e b b b b b j j j j w 0 e s.7 H H S q q q c ",
"v v A A A A v v v A v A A A v A A A A A A A A r d b b :.:.b b b b b b b b b b b b b e b e 0 j w w K w w w w 0 V.7 7 D c q D q D ",
"q v v v A v v v v v v r v v A v v v A A A A A r d b b b b b b b b b w w b j j w w w 0 w 0 w w w w w w K w w 0 N.7 7 D q 0 0 0 0 ",
"q q q q q v v v e r r r r v v A v A v v A A A e a 0 w w w w w w w w w w w w K q 0 0 q 0 9 9 9 9 q q q w w 9 9 N.4 C C 8 8 4 7 7 ",
"8 0 0 0 0 q D q 7 7 7 7 7 q q q q c q q q q c 7 p 0 0 w w w K w w w w w w w S q 9 q q 4 4 0 4 0 0 0 0 0 0 4 = n.k.C 4 7 4 4 7 7 ",
"7 7 7 7 7 7 7 7 4 = = 4 4 4 4 4 8 8 4 8 7 7 4 = 0.4 4 4 4 4 4 4 4 4 3 3 3 3 3 3 3 3 3 3 * 3 3 0 3 3 3 3 3 & * u., z , , , , 5 5 ",
"2 2 2 2 2 2 2 , $ * * , , , , 3 3 3 3 , 3 , * , 6.* * 1 1 1 2 1 1 1 ; ; 1 1 1 1 1 ; ; ; & % ; ; ; ; ; ; %   4.y.: : : : # : 2 2 ",
"= = < = = = - i i i i       # # # # # # # # # 2.2.2.% % % % % % % % % % % % % % % 1.1.1.1.1.% - - - - -     4.u.3.: - # # - - - ",
"n.n.n.c.c.u.y.y.y.w.7.7.0.w.t.y.y.c.c.c.b.c.c.t.c.c.c.c.n.N.D.D.Z.S.Z.Z.V.V.Z.Z.Z.s.a.p.u.y.y.y.p N.s Z.Z.s.s.d.s.s.s.Z.a.N.V.V.",
"r r r r r r 1 1 r *.*.*.*.*.*.r G.1 1 r r r r r r r r r r r r r r r r r r r r r r r r r r r r d d d + 1 r r r r r r r r r r r r ",
"A A A A A A r *.*.*.*.*.*.*.*.r G.1 1 r *.r *.*.*.*.*.*.*.*.*.r *.*.*.*.*.*.*.*.*.v r v v v r d d + 1 r r r r r *.*.*.*.*.*.r A ",
"A A A A *.A *.A *.*.*.*.>.*.*.r G.1 r *.*.*.*.*.*.*.*.*.*.*.*.*.*.*.*.*.*.*.*.*.*.*.*.*.v v v d d r r *.*.*.*.*.*.*.*.A *.) ) ) ",
"*.*.*.*.A *.*.*.*.*.A *.*.*.*.r G.1 r *.*.*.v >.*.*.v *.*.*.*.*.*.*.*.*.*.*.v *.v *.*.*.*.*.v d G.r *.*.*.*.>.*.A ) ) ) ) ) H H ",
"*.*.*.A *.A *.*.*.A *.A *.*.*.r f.r r r *.*.v *.*.v *.*.*.*.*.*.*.*.*.*.*.v v v v *.*.*.*.*.v d.d.r *.*.*.) ) A ) ) Z c c F c D ",
"*.*.*.A *.A A A *.A *.A A A *.f.f.r r r v *.v *.v v v v v v v v v v v v v *.v *.v *.*.*.*.*.r r s.e ) ) ) ) H H c c c c c c c D ",
"*.*.*.A A A v v v A A A A A *.r f.r r *.v v v *.*.v *.v v v v v v v v v v *.v v v v *.v *.) ) e a.e H H F c F c c c c c c D C x ",
"*.v A A v v A A v A A A A A A r d r r v v v v v v v v v v v v v v v v v v v ) ) ) v v v g H F 7 u.7 D D D D c c x 0 0 x C x C C ",
"v v v v A v v v v v A A A A A e s e v v v v v v v e v e v v v v v v g g q q q q q q q q q D D 4 r.4 0 q 8 x 7 7 x 7 x x 7 C C C ",
"q q q q q q q q c c c q c c c 7 p 7 q q q q q 7 7 7 7 7 7 D q q q q 7 0 4 0 0 8 0 q 8 8 7 C C = 9.4 7 7 h 7 7 7 5 5 5 5 7 7 7 7 ",
"0 4 0 0 0 0 0 0 x x x x x x 4 4 r.= 0 0 q q q 4 0 4 4 4 4 4 4 4 4 4 7 4 7 7 4 7 7 7 7 7 7 z 3 * 6., 2 2 2 2 , 2 2 2 2 2 , 2 2 2 ",
"4 4 7 7 C 7 8 8 7 7 x x 4 4 4 4 0.= 4 7 7 4 4 4 4 4 4 4 3 3 , 3 3 3 3 , , 5 2 2 , 2 2 2 , : : : 3.: # : : : 2 < l < 2 : : : : : ",
"* 3 3 4 3 3 4 7 h h 3 3 h 4 , , 8.* * 3 3 3 , , , , , , * , , , , : : : : : : < 2 : - - - # # i 1.# - - - - < - - - - - - # # # ",
"* * * * * * * *       * * * $ 4.4.4.$ $ : : : : : : : # - - - - - - #   # # - - - = = # # # # u u # # $ $ $ $ $ $ $ $ # # # # # ",
"n.n.c.c.x.z.l.l.l.l.l.l.z.z.z.z.z.x.x.x.v.c.c.c.c.v.v.v.v.v.v.x.x.x.x.x.v.c.c.v.v.z.z.j.j.j.j.z.x.v.x.z.z.z.z.z.z.z.z.x.v.v.x.z."
};
